<svg xmlns="http://www.w3.org/2000/svg" xmlns:xlink="http://www.w3.org/1999/xlink" xmlns:serif="http://www.serif.com/" viewBox="0 0 128 161.25" version="1.1" xml:space="preserve" style="" x="0px" y="0px" fill-rule="evenodd" clip-rule="evenodd" stroke-linejoin="round" stroke-miterlimit="2"><g transform="matrix(1,0,0,1,-178,-547)"><g serif:id="Broken search" transform="matrix(1,0,0,1,-1780,547.297)"><rect x="1958" y="0" width="128" height="128" style="" fill="none"/><g transform="matrix(0.972224,0.234051,-0.234051,0.972224,1925.48,-585.408)"><path d="M246.335,573.298L237.886,564.585C237.395,564.079 237.141,563.389 237.186,562.685C237.231,561.982 237.57,561.33 238.121,560.89L248.776,552.384C249.496,551.808 250.475,551.676 251.322,552.04C258.842,555.268 265.584,560.558 270.618,567.748C285.038,588.341 280.025,616.767 259.432,631.186C250.881,637.173 240.98,639.81 231.295,639.373C230.475,639.336 229.726,638.899 229.29,638.204C228.854,637.509 228.787,636.644 229.11,635.89L237.084,617.303L231.385,611.078C230.498,610.109 230.512,608.62 231.417,607.668L239.088,599.597L234.027,589.662C233.562,588.749 233.701,587.644 234.379,586.875L246.335,573.298ZM250.701,557.245L243.392,563.08L251.533,571.476C252.441,572.412 252.476,573.889 251.614,574.868L239.253,588.905L244.346,598.903C244.827,599.847 244.661,600.992 243.931,601.76L236.648,609.422L241.862,615.117C242.526,615.842 242.703,616.888 242.316,617.791L235.2,634.378C242.619,634.04 250.034,631.663 256.564,627.09C274.897,614.254 279.359,588.948 266.522,570.616C262.346,564.651 256.849,560.154 250.701,557.245Z"/></g><g transform="matrix(0.972224,0.234051,-0.234051,0.972224,1925.48,-585.408)"><path d="M221.277,628.694L222.867,634.271C223.118,635.155 222.866,636.105 222.208,636.746C221.551,637.387 220.595,637.617 219.719,637.343C210.433,634.449 201.999,628.576 195.994,620C181.575,599.407 186.587,570.982 207.18,556.562C216.705,549.893 227.905,547.38 238.622,548.644C239.624,548.762 240.456,549.47 240.733,550.44C241.01,551.41 240.677,552.451 239.889,553.081L228.547,562.136L237.92,571.803C238.828,572.739 238.864,574.216 238.002,575.195L227.26,587.393L232.225,597.14C232.706,598.084 232.54,599.229 231.81,599.997L222.973,609.294L228.787,615.644C229.61,616.543 229.664,617.904 228.916,618.867L221.277,628.694ZM231.517,553.367C224.06,553.686 216.608,556.065 210.048,560.658C191.716,573.494 187.254,598.8 200.09,617.132C204.444,623.35 210.232,627.972 216.697,630.865L216.121,628.845C215.903,628.079 216.063,627.255 216.552,626.626L223.674,617.464L217.71,610.95C216.823,609.982 216.837,608.492 217.742,607.54L226.967,597.834L222.034,588.15C221.569,587.237 221.708,586.132 222.386,585.363L232.723,573.625L223.041,563.64C222.55,563.134 222.296,562.445 222.341,561.741C222.386,561.038 222.725,560.386 223.276,559.946L231.517,553.367Z"/></g><g transform="matrix(0.607006,-0.42503,0.42503,0.607006,1952.15,100.018)"><path d="M105.599,46.505L105.599,58.481C105.599,60.343 107.111,61.855 108.973,61.855C110.835,61.855 112.347,60.343 112.347,58.481L112.347,46.505C112.347,44.643 110.835,43.131 108.973,43.131C107.111,43.131 105.599,44.643 105.599,46.505Z"/></g><g transform="matrix(0.607006,-0.42503,0.42503,0.607006,1954.07,103.193)"><path d="M123.219,69.344C123.219,61.405 118.53,54.215 111.265,51.015C111.264,51.014 111.264,51.014 111.263,51.014C110.014,50.463 108.591,50.463 107.342,51.014C107.341,51.014 107.34,51.014 107.34,51.015C100.075,54.215 95.386,61.405 95.386,69.344C95.386,78.062 95.386,90.166 95.386,98.418C95.386,101.76 96.713,104.965 99.076,107.328C101.439,109.691 104.644,111.018 107.985,111.018C108.859,111.018 109.746,111.018 110.62,111.018C113.961,111.018 117.166,109.691 119.529,107.328C121.892,104.965 123.219,101.76 123.219,98.418L123.219,69.344ZM109.302,57.554C104.919,59.823 102.133,64.361 102.133,69.344C102.133,78.062 102.133,90.166 102.133,98.418C102.133,99.971 102.75,101.459 103.847,102.557C104.945,103.654 106.433,104.271 107.985,104.271C108.859,104.271 109.746,104.271 110.62,104.271C112.172,104.271 113.66,103.654 114.758,102.557C115.855,101.459 116.472,99.971 116.472,98.418L116.472,69.344C116.472,64.361 113.686,59.823 109.302,57.554Z"/></g></g></g></svg>