<?xml version="1.0" encoding="utf-8"?>
<!-- Svg Vector Icons : http://www.onlinewebfonts.com/icon -->
<!DOCTYPE svg PUBLIC "-//W3C//DTD SVG 1.1//EN" "http://www.w3.org/Graphics/SVG/1.1/DTD/svg11.dtd">
<svg version="1.1" xmlns="http://www.w3.org/2000/svg" xmlns:xlink="http://www.w3.org/1999/xlink" x="0px" y="0px" viewBox="0 0 256 256" enable-background="new 0 0 256 256" xml:space="preserve">
<metadata> Svg Vector Icons : http://www.onlinewebfonts.com/icon </metadata>
<g><g><path fill="#ffffff" d="M62.2,80.5c0,36.4,29.5,65.8,65.8,65.8c36.4,0,65.8-29.5,65.8-65.8c0-36.3-29.5-65.8-65.8-65.8C91.6,14.6,62.2,44.1,62.2,80.5L62.2,80.5z"/><path fill="#ffffff" d="M245.3,223.2c-10.4-30.7-36.8-54-68.9-60.4c-14.2,8.3-30.7,13-48.4,13c-17.7,0-34.2-4.7-48.4-13c-32.1,6.4-58.5,29.7-68.9,60.4c-3.1,9,3.8,18.2,13.2,18.2h208.1C241.5,241.4,248.3,232.2,245.3,223.2z"/></g></g>
</svg>