<svg id="visual" viewBox="0 0 900 900" width="900" height="900" xmlns="http://www.w3.org/2000/svg" xmlns:xlink="http://www.w3.org/1999/xlink" version="1.1"><g transform="translate(507.4068172493937 460.7560268332649)"><path d="M188.6 -346.6C229.2 -303.2 236.4 -221.9 249.1 -157.8C261.7 -93.8 279.9 -46.9 287.5 4.4C295.1 55.7 292.2 111.3 279.1 174.7C266 238.1 242.8 309.1 194.5 341.1C146.3 373.1 73.2 366.1 4.9 357.5C-63.3 349 -126.7 339.1 -167.9 303.1C-209.2 267.1 -228.5 205 -271.8 150.2C-315.1 95.3 -382.6 47.7 -401 -10.7C-419.5 -69 -389 -138 -338.7 -180.7C-288.4 -223.4 -218.2 -239.9 -158.4 -272.2C-98.7 -304.6 -49.3 -352.8 12.3 -374.1C74 -395.5 148 -390 188.6 -346.6" fill="#74C7D3"></path></g></svg>