<?xml version="1.0" standalone="no"?>
<svg viewBox="0 0 200 200" xmlns="http://www.w3.org/2000/svg">
  <path fill="#74C7D3" d="M39.1,-69.5C48.1,-62.4,51.2,-46.9,57.8,-33.9C64.5,-20.9,74.8,-10.4,75.2,0.2C75.6,10.9,66.1,21.8,59.2,34.4C52.3,47,48,61.3,38.5,71.2C29.1,81.1,14.6,86.5,0.2,86.2C-14.2,85.9,-28.4,79.8,-37.8,69.9C-47.2,60.1,-51.9,46.4,-61.3,34.1C-70.8,21.8,-85,10.9,-85,0C-85,-10.9,-70.8,-21.8,-59.9,-31.7C-49.1,-41.6,-41.7,-50.5,-32.3,-57.3C-22.9,-64.2,-11.4,-69,1.8,-72.1C15,-75.2,30,-76.6,39.1,-69.5Z" transform="translate(100 100)" />
</svg>
